<?xml version="1.0" encoding="utf-8"?>
<!-- Generator: Adobe Illustrator 21.0.2, SVG Export Plug-In . SVG Version: 6.00 Build 0)  -->
<svg version="1.1" id="Calque_1" xmlns="http://www.w3.org/2000/svg" xmlns:xlink="http://www.w3.org/1999/xlink" x="0px" y="0px"
	 viewBox="0 0 300 300" style="enable-background:new 0 0 300 300;" xml:space="preserve">
<style type="text/css">
	.st0{display:none;}
	.st1{display:inline;fill:none;stroke:#000000;stroke-width:5;stroke-linecap:round;stroke-linejoin:round;stroke-miterlimit:10;}
	.st2{fill:none;stroke:#000000;stroke-width:5;stroke-linecap:round;stroke-linejoin:round;stroke-miterlimit:10;}
</style>
<g id="HomeIcon" class="st0">
	<polyline class="st1" points="240.5,134 240.5,252.5 61.5,252.5 61.5,134 	"/>
	<polyline class="st1" points="269.5,118.1 151.5,47.3 33.5,118.1 	"/>
</g>
<g id="CustomersIcon" class="st0">
	<path class="st1" d="M211.5,229.5h-120v-76.6c0-21.2,17.2-38.4,38.4-38.4h43.3c21.2,0,38.4,17.2,38.4,38.4v76.6H211.5z"/>
	<circle class="st1" cx="151.5" cy="76.5" r="29"/>
	<circle class="st1" cx="73.8" cy="127.1" r="15.4"/>
	<path class="st1" d="M90.9,151.3c-2.2-0.6-4.6-1-7-1h-24c-13.5,0-24.4,10.9-24.4,24.4v36.8h55.4V151.3z"/>
	<circle class="st1" cx="228.7" cy="127.1" r="15.4"/>
	<path class="st1" d="M211.5,151.3c2.2-0.6,4.6-1,7-1h24c13.5,0,24.4,10.9,24.4,24.4v36.8h-55.4V151.3z"/>
</g>
<polygon class="st2" points="152,147.3 32,94 152,40.7 272,94 "/>
<polygon class="st2" points="210.6,121.3 152,147.3 94.4,121.7 32,149.5 152,202.8 272,149.5 "/>
<polygon class="st2" points="208.6,177.6 151.5,202.8 94.4,177.2 32,205 152,258.3 272,205 "/>
</svg>
