<?xml version="1.0" encoding="utf-8"?>
<!-- Generator: Adobe Illustrator 21.0.2, SVG Export Plug-In . SVG Version: 6.00 Build 0)  -->
<svg version="1.1" id="Calque_1" xmlns="http://www.w3.org/2000/svg" xmlns:xlink="http://www.w3.org/1999/xlink" x="0px" y="0px"
	 viewBox="0 0 300 300" style="enable-background:new 0 0 300 300;" xml:space="preserve">
<style type="text/css">
	.st0{display:none;}
	.st1{display:inline;fill:none;stroke:#000000;stroke-width:5;stroke-linecap:round;stroke-linejoin:round;stroke-miterlimit:10;}
</style>
<g id="HomeIcon" class="st0">
	<polyline class="st1" points="240.5,134 240.5,252.5 61.5,252.5 61.5,134 	"/>
	<polyline class="st1" points="269.5,118.1 151.5,47.3 33.5,118.1 	"/>
</g>
<g id="CustomersIcon" class="st0">
	<path class="st1" d="M211.5,229.5h-120v-76.6c0-21.2,17.2-38.4,38.4-38.4h43.3c21.2,0,38.4,17.2,38.4,38.4v76.6H211.5z"/>
	<circle class="st1" cx="151.5" cy="76.5" r="29"/>
	<circle class="st1" cx="73.8" cy="127.1" r="15.4"/>
	<path class="st1" d="M90.9,151.3c-2.2-0.6-4.6-1-7-1h-24c-13.5,0-24.4,10.9-24.4,24.4v36.8h55.4V151.3z"/>
	<circle class="st1" cx="228.7" cy="127.1" r="15.4"/>
	<path class="st1" d="M211.5,151.3c2.2-0.6,4.6-1,7-1h24c13.5,0,24.4,10.9,24.4,24.4v36.8h-55.4V151.3z"/>
</g>
<g>
	<g>
		<g>
			<g>
				<path d="M141.1,52.9L141.1,52.9L141.1,52.9 M162.3,53.3c2.4,3.1,8.4,18,11,24.5c0.5,1.3,1.5,2.3,2.8,2.8l8.6,3.5
					c0.6,0.2,1.2,0.4,1.9,0.4c0.7,0,1.4-0.1,2.1-0.4c20.1-9.1,24.3-10.1,25.1-10.2l15.1,14.8c-0.5,3.9-7,18.5-9.9,25
					c-0.6,1.3-0.6,2.7,0,4l3.5,8.4c0.5,1.3,1.6,2.3,2.9,2.8c6.7,2.4,21.8,7.8,25,10.1v21c-3.2,2.4-18.4,8.3-25.1,10.8
					c-1.3,0.5-2.3,1.5-2.8,2.7l-3.5,8.3c-0.5,1.3-0.5,2.8,0.1,4.1c2.7,5.7,9.7,20.5,10.4,24.4l-15.2,14.8c-1.1-0.2-5.9-1.4-25.6-9.7
					c-0.6-0.3-1.3-0.4-1.9-0.4c-0.6,0-1.3,0.1-1.9,0.4l-8.6,3.5c-1.3,0.5-2.3,1.6-2.8,2.9c-2.2,6-8,21.3-10.3,24.5h-21.5
					c-2.4-3.1-8.4-17.9-11-24.5c-0.5-1.3-1.5-2.3-2.8-2.8l-8.6-3.5c-0.6-0.2-1.2-0.4-1.9-0.4c-0.7,0-1.4,0.1-2.1,0.4
					c-19.9,9-24.2,10.1-25,10.2l-15.2-14.8c0.5-3.9,7-18.5,9.9-24.9c0.6-1.3,0.6-2.7,0-4l-3.5-8.3c-0.5-1.3-1.6-2.3-2.9-2.8
					c-6.1-2.2-21.7-7.8-25-10.1v-21c3.2-2.3,18.3-8.2,25-10.8c1.3-0.5,2.3-1.5,2.8-2.7l3.5-8.3c0.6-1.3,0.5-2.8-0.1-4.1
					c-2.7-5.7-9.7-20.4-10.4-24.3l15.1-14.8c1.2,0.2,6,1.4,25.6,9.7c0.6,0.3,1.3,0.4,1.9,0.4c0.6,0,1.3-0.1,1.9-0.4l8.6-3.5
					c1.3-0.5,2.3-1.6,2.8-2.9c2.2-5.9,7.9-21.3,10.3-24.5H162.3 M152,190.1c22.7,0,41.1-18.2,41.1-40.5c0-22.3-18.4-40.4-41.1-40.4
					c-22.7,0-41.2,18.1-41.2,40.4C110.8,172,129.3,190.1,152,190.1 M74.4,88.8L74.4,88.8L74.4,88.8 M53.6,139L53.6,139L53.6,139
					 M162.4,48.3h-21.7c-3.3,0-4.5,0-14.9,27.7l-8.6,3.5c-15.8-6.7-25.1-10.1-27.6-10.1l-2.1,0.1L71,85.8c-2.5,2.4-3.4,3.2,9.4,30
					l-3.5,8.3c-28.2,10.9-28.2,12-28.2,15.3v21.3c0,3.3,0,4.5,28.3,14.7l3.5,8.3c-12.1,27.2-11.3,28.1-8.9,30.4l15.4,15.1l1.5,1.3
					h1.8c0.9,0,3.7,0,27.2-10.6l8.6,3.5c11.1,27.6,12.3,27.6,15.6,27.6c0,0,0,0,0,0h21.7c3.3,0,4.5,0,14.9-27.7l8.6-3.5
					c15.8,6.7,25.1,10.1,27.6,10.1l2.1-0.1l16.7-16.4c2.4-2.4,3.2-3.2-9.5-30l3.5-8.3c28.3-10.9,28.3-12.1,28.3-15.3v-21.3
					c0-3.4,0-4.5-28.3-14.6l-3.5-8.4c12.1-27.3,11.3-28.1,8.9-30.4L217,70.1l-1.5-1.3h-1.8c-0.9,0-3.8,0-27.2,10.6l-8.6-3.5
					C166.8,48.3,165.7,48.3,162.4,48.3L162.4,48.3z M152,185.1c-19.9,0-36.2-15.9-36.2-35.5c0-19.5,16.2-35.4,36.2-35.4
					c19.9,0,36.1,15.9,36.1,35.4C188.1,169.2,171.9,185.1,152,185.1L152,185.1z"/>
			</g>
		</g>
	</g>
</g>
</svg>
